<?xml version="1.0" encoding="UTF-8" standalone="no"?>
<svg
   version="1.1"
   x="0px"
   y="0px"
   viewBox="0 0 100 125"
   id="svg2"
   sodipodi:docname="logo.svg"
   inkscape:version="1.4 (e7c3feb1, 2024-10-09)"
   xmlns:inkscape="http://www.inkscape.org/namespaces/inkscape"
   xmlns:sodipodi="http://sodipodi.sourceforge.net/DTD/sodipodi-0.dtd"
   xmlns="http://www.w3.org/2000/svg"
   xmlns:svg="http://www.w3.org/2000/svg">
  <defs
     id="defs2" />
  <sodipodi:namedview
     id="namedview2"
     pagecolor="#ffffff"
     bordercolor="#000000"
     borderopacity="0.25"
     inkscape:showpageshadow="2"
     inkscape:pageopacity="0.0"
     inkscape:pagecheckerboard="0"
     inkscape:deskcolor="#d1d1d1"
     inkscape:zoom="3.3394679"
     inkscape:cx="64.23179"
     inkscape:cy="53.002456"
     inkscape:window-width="1456"
     inkscape:window-height="793"
     inkscape:window-x="7"
     inkscape:window-y="46"
     inkscape:window-maximized="0"
     inkscape:current-layer="g1" />
  <g
     transform="translate(0,-952.36218)"
     id="g1">
    <path
       d="m 16.525528,958.36308 c 0.671103,0.0159 1.326969,0.35716 1.725378,0.89759 l 5.832213,7.9403 c 0.271771,0.37885 0.419102,0.84557 0.414141,1.31187 l 0,10.52951 2.312079,0 c 1.156464,0 2.208543,1.05261 2.20865,2.20946 l 0,5.86892 c 0,1.15682 -1.052186,2.20936 -2.20865,2.20947 l -0.276059,0 0,4.97129 c 0.03642,0.003 0.216,0.6947 0.655724,1.48451 0.502583,0.90262 1.237607,2.0509 2.001579,3.27968 1.527945,2.45752 3.312957,5.15292 3.312957,8.32012 l 0,25.3743 c 0,1.0647 -0.3555,2.0088 -0.966296,2.7618 l 4.210193,0 c -0.620291,-0.8751 -1.000736,-1.93 -1.000736,-3.0725 -0.01102,-11.2425 0,-22.4771 0,-33.69443 0,-3.57158 1.869732,-7.06659 3.589051,-10.32236 0.859465,-1.6279 1.714217,-3.15649 2.346661,-4.45348 0.610796,-1.25266 0.977315,-2.34354 1.035178,-2.72732 l 0,-7.2153 -0.690201,0 c -1.156429,0 -2.208508,-1.05261 -2.208614,-2.20947 l 0,-7.80218 c 0,-1.15686 1.052185,-2.20936 2.208614,-2.20947 l 17.392925,0 c 1.144842,0.018 2.174173,1.06402 2.174173,2.20947 l 0,7.80218 c 0,1.14545 -1.029331,2.1915 -2.174173,2.20947 l -0.690166,0 0,7.42244 c 0,0.0794 0.258839,1.11136 0.862795,2.34755 0.604063,1.23623 1.462642,2.72778 2.346662,4.34991 1.768004,3.24425 3.727063,6.85651 3.727063,10.59856 l 0,33.69443 c 0,1.1411 -0.347315,2.198 -0.966296,3.0725 l 3.105886,0 c -0.617208,-0.753 -1.000736,-1.6971 -1.000736,-2.7618 -0.01102,-8.4712 0,-16.9276 0,-25.3743 0,-3.0506 1.739409,-5.6429 3.243827,-8.11301 0.752244,-1.23502 1.497685,-2.42752 2.036126,-3.38322 0.494858,-0.87835 0.747177,-1.60881 0.793771,-1.76071 l 0,-4.79866 -0.345189,0 c -1.156429,0 -2.208507,-1.05265 -2.208614,-2.20947 l 0,-5.86892 c 0,-1.15685 1.052185,-2.20936 2.208614,-2.20946 l 15.184311,0 c 1.156429,0 2.208508,1.05261 2.208614,2.20946 l 0,5.86892 c 0,1.15682 -1.052185,2.20936 -2.208614,2.20947 l -0.310535,0 0,4.97129 c 0.03646,-0.003 0.210366,0.69502 0.655759,1.48451 0.508855,0.90223 1.261985,2.05086 2.03602,3.27968 1.547894,2.45762 3.347504,5.13932 3.347504,8.32012 l 0,25.3743 c 0,1.0668 -0.381543,2.0081 -1.000843,2.7618 l 0.345083,0 c 1.156429,0 2.208508,1.0527 2.20865,2.2095 l 0,6.4213 c 0,1.1569 -1.052221,2.2094 -2.20865,2.2095 l -83.58275,0 c -1.156429,0 -2.208507,-1.0526 -2.208614,-2.2095 l 0,-6.4213 c 0,-0.8699 0.574229,-1.7106 1.380402,-2.0368 -0.700902,-0.7792 -1.13889,-1.7835 -1.13889,-2.9345 l 0,-25.3743 c 0,-3.0362 1.690476,-5.6428 3.174909,-8.11301 0.742323,-1.23506 1.469516,-2.3923 2.001685,-3.34871 0.489189,-0.87956 0.746611,-1.63616 0.793666,-1.79522 l 0,-4.79866 -0.310642,0 c -1.156429,0 -2.208508,-1.05265 -2.20865,-2.20947 l 0,-5.86892 c 0,-1.15685 1.052221,-2.20936 2.20865,-2.20946 l 2.346661,0 0,-18.46981 c -3.54e-4,-1.18024 1.098567,-2.24628 2.277744,-2.20946 z m 39.686172,7.87124 -12.975696,0 0,3.38326 12.975696,0 z m -37.546652,1.10473 0,11.7033 1.414949,0 0,-9.80455 z m 34.647838,6.69746 -7.178032,0 0,7.42244 c 0,0.069 0,0.13816 0,0.20715 -0.158492,1.47479 -0.773681,2.78975 -1.483866,4.24633 -0.710185,1.45655 -1.582937,3.0145 -2.415685,4.59152 -1.665425,3.15408 -3.071338,6.499 -3.071338,8.25102 l 0,5.73083 c 6.605893,-0.616 13.403409,-3.7205 21.08544,-4.2118 l 0,-1.51903 c 0,-1.93387 -1.494921,-5.31213 -3.209457,-8.45812 -0.857303,-1.57305 -1.713791,-3.12045 -2.415578,-4.55705 -0.702036,-1.4366 -1.311484,-2.67707 -1.311484,-4.28085 z m 31.196869,9.42477 -10.767083,0 0,1.44995 10.767083,0 z m -59.90903,0 -10.490988,0 0,1.44995 10.490988,0 z m 57.389845,5.86892 -5.694059,0 0,5.04035 c 0.01105,0.0919 0.01105,0.18425 0,0.27617 -0.170717,1.32817 -0.748595,2.29641 -1.380402,3.41777 -0.631771,1.12135 -1.385114,2.30471 -2.105149,3.48681 -1.44,2.3643 -2.588173,4.8923 -2.588173,5.8345 l 0,4.4879 c 2.583885,-0.1461 5.29983,-0.9229 8.213244,-1.7607 2.985484,-0.8584 6.200149,-1.7962 9.593822,-1.7951 l 0,-0.9321 c 0,-1.0861 -1.20724,-3.6155 -2.691886,-5.9726 -0.742216,-1.1785 -1.511255,-2.33859 -2.139484,-3.45229 -0.628264,-1.11366 -1.207913,-2.07616 -1.207913,-3.59036 z m -59.874554,0 -5.486988,0 0,5.04035 c 0.01102,0.0919 0.01102,0.18425 0,0.27617 -0.169405,1.3179 -0.722444,2.29712 -1.345854,3.41777 -0.62348,1.12067 -1.394752,2.30471 -2.105149,3.48681 -1.420796,2.3642 -2.519256,4.8778 -2.519256,5.8345 l 0,3.9701 17.427507,0 0,-3.9701 c 0,-1.0996 -1.191791,-3.6154 -2.657303,-5.9726 -0.732721,-1.1786 -1.485106,-2.33898 -2.105043,-3.45229 -0.619973,-1.11327 -1.207914,-2.0875 -1.207914,-3.59036 z m 38.133389,15.3627 c -6.610535,0.5719 -13.40759,3.7145 -21.08544,4.2464 l 0,23.5101 c 0,0.4843 0.41237,0.8976 0.793665,0.8976 l 19.49811,0 c 0.38133,0 0.793665,-0.4133 0.793665,-0.8976 z m 27.780448,8.0784 c -2.619638,0.011 -5.385082,0.7351 -8.351468,1.5881 -2.954728,0.8496 -6.093957,1.802 -9.455598,1.9333 l 0,16.4674 c 0,-0.047 0.04085,0.1381 0.414106,0.1381 l 16.978854,0 c 0.373252,0 0.414106,-0.1854 0.414106,-0.1381 z m -59.943577,3.0035 -17.427507,0 0,16.9853 c 0,-0.047 0.04085,0.1381 0.345189,0.1381 l 16.7372,0 c 0.30437,0 0.345118,-0.1854 0.345118,-0.1381 z m 61.496467,24.1661 -79.165486,0 0,2.0023 79.165486,0 z"
       style="text-indent:0;text-transform:none;direction:ltr;block-progression:tb;baseline-shift:baseline;color:#000000;enable-background:accumulate;fill:#748873;fill-opacity:1"
       fill="#000000"
       fill-opacity="1"
       fill-rule="evenodd"
       stroke="none"
       marker="none"
       visibility="visible"
       display="inline"
       overflow="visible"
       id="path1" />
  </g>
</svg>
